<svg xmlns="http://www.w3.org/2000/svg" width="32" height="32" viewBox="0 0 32 32"><path fill="#444" d="M26 28H6v-4l6-10 8.22 10L26 20v8zM26 15c0 1.657-1.343 3-3 3s-3-1.343-3-3 1.343-3 3-3 3 1.343 3 3z"/><path fill="#444" d="M28.68 7.16c-.693-.948-1.66-2.054-2.723-3.117s-2.17-2.03-3.116-2.724C21.23.136 20.45 0 20 0H4.5C3.122 0 2 1.12 2 2.5v27C2 30.878 3.122 32 4.5 32h23c1.378 0 2.5-1.122 2.5-2.5V10c0-.448-.137-1.23-1.32-2.84zm-4.137-1.703c.96.96 1.712 1.825 2.268 2.543H22V3.19c.718.555 1.584 1.308 2.543 2.267zM28 29.5c0 .27-.23.5-.5.5h-23c-.27 0-.5-.23-.5-.5v-27c0-.27.23-.5.5-.5H20v7c0 .552.448 1 1 1h7v19.5z"/></svg>